<svg width="173" height="201" viewBox="0 0 173 201" fill="none" xmlns="http://www.w3.org/2000/svg">
<path fill-rule="evenodd" clip-rule="evenodd" d="M105.165 47.0786C105.811 47.0786 106.457 46.8262 106.942 46.3264L122.282 30.4913C122.732 30.0286 122.979 29.4126 122.979 28.7693V3.28466C122.979 1.91888 121.874 0.810425 120.505 0.810425C119.137 0.810425 118.031 1.91888 118.031 3.28466V27.7672L103.389 42.8823C102.436 43.8621 102.461 45.4307 103.443 46.3809C103.923 46.846 104.544 47.0786 105.165 47.0786ZM138.256 67.3055C138.255 67.303 138.254 67.3008 138.252 67.2986L138.251 67.2957C138.249 67.2926 138.247 67.2895 138.246 67.2857C138.186 67.0358 138.063 66.8132 137.932 66.5954C137.917 66.57 137.906 66.5418 137.895 66.5136C137.881 66.4761 137.867 66.4385 137.842 66.4074C137.659 66.155 137.427 65.9398 137.16 65.7715L137.156 65.7686C137.156 65.7679 137.155 65.7673 137.154 65.7669C137.153 65.7667 137.153 65.7666 137.152 65.7666C137.087 65.7266 137.013 65.7035 136.939 65.6802L136.939 65.6801L136.916 65.6732C136.901 65.6684 136.886 65.6635 136.871 65.6584C136.844 65.6493 136.817 65.6394 136.791 65.628C136.747 65.6095 136.703 65.5898 136.659 65.5701C136.527 65.5107 136.396 65.4517 136.252 65.4276L136.247 65.4264L136.243 65.4247L136.238 65.4226L136.233 65.4205C136.23 65.4195 136.227 65.4185 136.224 65.4177L117.175 62.4486C116.898 62.4066 116.628 62.4214 116.364 62.4659C116.361 62.4663 116.359 62.4665 116.356 62.4666L116.353 62.4666L116.346 62.4665L116.338 62.4659C116.329 62.4653 116.32 62.4647 116.312 62.4659L90.4609 67.5901L85.4778 60.2045L91.5792 46.8708C91.8663 46.2424 91.8786 45.5224 91.6114 44.884L84.4361 27.8118C84.4306 27.7979 84.4219 27.7879 84.4131 27.7778C84.4063 27.77 84.3995 27.7622 84.3941 27.7524C84.3607 27.6809 84.315 27.6206 84.2689 27.5597L84.2689 27.5596C84.2433 27.5258 84.2175 27.4918 84.1937 27.4555L84.1603 27.4035C84.0561 27.2406 83.9538 27.0808 83.8151 26.9533C83.7926 26.9322 83.7662 26.9175 83.7399 26.9029C83.7197 26.8917 83.6997 26.8806 83.6815 26.8667C83.4786 26.7034 83.2658 26.5574 83.0258 26.4658C82.9616 26.4405 82.8929 26.4313 82.8235 26.422C82.7779 26.4159 82.732 26.4098 82.6869 26.399C82.6611 26.3932 82.6355 26.3872 82.61 26.3812C82.4416 26.3418 82.2766 26.3032 82.1005 26.3075C82.0902 26.3075 82.0807 26.3048 82.0714 26.3023C82.0628 26.2999 82.0544 26.2976 82.046 26.2976C52.14 27.6089 28.7114 52.0618 28.7114 81.9654C28.7114 99.3939 37.0372 116.04 51.0043 126.521C56.8064 130.76 60.1342 137.247 60.1342 144.316V155.945C60.1342 156.85 60.6464 157.61 61.3713 158.041V164.357H61.1239C59.7581 164.357 58.6497 165.463 58.6497 166.832C58.6497 168.2 59.7581 169.306 61.1239 169.306H61.3713V174.997H61.1239C59.7581 174.997 58.6497 176.103 58.6497 177.471C58.6497 178.839 59.7581 179.945 61.1239 179.945H61.3713V183.161C61.3713 187.254 64.7016 190.584 68.794 190.584H71.7705C72.9483 196.547 78.2753 200.976 84.3817 200.976C90.6836 200.976 95.8349 196.394 96.9953 190.584H100.217C104.309 190.584 107.639 187.254 107.639 183.161V179.945H107.887C109.255 179.945 110.361 178.839 110.361 177.471C110.361 176.103 109.255 174.997 107.887 174.997H107.639V169.306H107.887C109.255 169.306 110.361 168.2 110.361 166.832C110.361 165.463 109.255 164.357 107.887 164.357H107.639V158.043C108.367 157.613 108.877 156.855 108.877 155.947V144.316C108.877 137.195 112.289 130.45 118.029 126.254C133.31 114.796 141.539 96.5015 140.042 77.3237C139.783 73.9141 139.01 70.5686 138.262 67.3335L138.262 67.3333L138.262 67.333L138.256 67.3055ZM102.691 183.161C102.691 184.527 101.583 185.636 100.217 185.636H68.794C67.4307 185.636 66.3198 184.527 66.3198 183.161V179.945H102.691V183.161ZM102.691 174.997H66.3198V169.306H102.691V174.997ZM66.3198 164.357V158.419H75.9693H92.7941H102.691V164.357H66.3198ZM78.4435 136.646H90.3199V153.471H78.4435V136.646ZM115.087 122.278C108.1 127.382 103.928 135.622 103.928 144.316V153.471H95.2683V134.172V120.563C95.2683 118.022 96.743 115.699 99.0514 114.635L104.25 112.161C105.484 111.572 106.009 110.095 105.423 108.863C104.834 107.628 103.364 107.106 102.124 107.69L96.9533 110.152C92.9228 112.01 90.3199 116.1 90.3199 120.563V131.697H78.4435V120.563C78.4435 116.097 75.8406 112.01 71.8373 110.167L66.6414 107.692C65.4068 107.106 63.9297 107.626 63.3433 108.863C62.7569 110.095 63.279 111.572 64.5136 112.161L69.7367 114.648C72.0204 115.702 73.4951 118.022 73.4951 120.566V134.174V153.473H65.0827V144.316C65.0827 135.651 61.015 127.707 53.9486 122.543C41.2434 113.012 33.6599 97.8425 33.6599 81.9654C33.6599 55.2882 54.1416 33.4259 80.5763 31.397L86.6283 45.7995L81.1306 57.8144L61.3515 55.9958C59.9808 55.8771 58.7858 56.8742 58.662 58.2325C58.5359 59.5934 59.5379 60.7983 60.8987 60.922L81.2592 62.795L87.2815 71.7196C87.7467 72.4099 88.5211 72.8082 89.3326 72.8082C89.491 72.8082 89.6543 72.7934 89.8126 72.7612L111.643 68.4338L101.367 84.7637L81.5289 89.9596C80.2077 90.306 79.4159 91.6594 79.7623 92.9807C80.0518 94.0965 81.0563 94.8314 82.1524 94.8314C82.3578 94.8314 82.5706 94.8066 82.7809 94.7497L103.562 89.3064C104.171 89.1481 104.695 88.7621 105.032 88.2301L118.021 67.5876L133.805 70.0495C134.383 72.5979 134.915 75.1909 135.108 77.7047C136.474 95.1901 128.98 111.859 115.087 122.278ZM135.846 45.8414H169.99C171.358 45.8414 172.464 46.9499 172.464 48.3157C172.464 49.6815 171.358 50.7899 169.99 50.7899H135.846C134.478 50.7899 133.372 49.6815 133.372 48.3157C133.372 46.9499 134.478 45.8414 135.846 45.8414ZM141.289 31.2435C141.957 31.2435 142.62 30.9763 143.108 30.4468L157.706 14.6117C158.631 13.6072 158.569 12.041 157.562 11.1156C156.558 10.1903 154.994 10.2546 154.066 11.2591L139.468 27.0942C138.543 28.0988 138.604 29.6649 139.611 30.5903C140.087 31.0258 140.69 31.2435 141.289 31.2435ZM31.1855 145.058L0.752441 134.172L16.5875 120.069L31.1855 122.048V145.058ZM150.939 81.2229L146.238 116.357L169.743 100.027L167.269 81.9652L150.939 81.2229ZM45.289 4.52187H55.186L59.3922 20.8518L36.3818 31.2436L45.289 4.52187Z" fill="#171717"/>
</svg>
