<svg width="187" height="200" viewBox="0 0 187 200" fill="none" xmlns="http://www.w3.org/2000/svg">
<path d="M184.539 195.043H151.814V177.868L165.195 166.716C166.243 165.841 166.386 164.282 165.522 163.226C164.651 162.168 163.103 162.024 162.058 162.897L151.814 171.434V145.476C151.814 144.106 150.715 142.998 149.354 142.998C147.993 142.998 146.893 144.106 146.893 145.476V154.611L136.576 144.22C135.614 143.251 134.059 143.251 133.097 144.22C132.135 145.189 132.135 146.755 133.097 147.724L146.893 161.62V195.043H133.277C132.428 184.768 124.134 176.951 113.676 176.951C111.445 176.951 109.186 177.425 107.033 178.228V118.214H156.489C157.85 118.214 158.95 117.106 158.95 115.736V71.1255C158.95 53.3606 144.6 38.9069 126.963 38.9069H114.168V29.3255L139.332 17.3576C140.193 16.9486 140.742 16.0738 140.742 15.1171C140.742 14.1605 140.191 13.2856 139.332 12.8767L112.759 0.237077C111.993 -0.124763 111.103 -0.0702404 110.392 0.385777C109.68 0.836838 109.247 1.62496 109.247 2.47503V4.70555V27.7543V38.9069H52.9013C35.2643 38.9069 20.9145 53.3606 20.9145 71.1255V114.628L12.3838 122.316C8.34611 125.962 6.98544 131.6 8.91695 136.683C10.8608 141.801 15.4595 144.98 20.9145 144.98H31.0026C46.3317 144.98 59.5915 139.588 72.7676 127.977L79.9671 121.357V168.128C76.5371 166.443 72.7824 165.553 68.8947 165.553C54.9214 165.553 43.5513 177.003 43.5513 191.08C43.5513 192.431 43.7112 193.757 43.9425 195.048H32.725V171.752C32.725 170.381 31.6227 169.273 30.2645 169.273C28.9063 169.273 27.8039 170.381 27.8039 171.752V181.93L19.0174 174.78C17.9618 173.92 16.4092 174.089 15.5579 175.152C14.7041 176.215 14.869 177.777 15.9245 178.637L27.8039 188.302V195.043H2.46053C1.10232 195.043 0 196.151 0 197.522C0 198.892 1.10232 200 2.46053 200H82.4276H104.572H184.539C185.9 200 187 198.892 187 197.522C187 196.151 185.9 195.043 184.539 195.043ZM113.676 181.908C121.37 181.908 127.507 187.554 128.336 195.043H107.033V183.623C109.117 182.533 111.422 181.908 113.676 181.908ZM109.247 43.8636V56.0075C109.247 57.3756 110.347 58.4859 111.708 58.4859C113.069 58.4859 114.168 57.3756 114.168 56.0075V43.8636H126.963C141.886 43.8636 154.029 56.0943 154.029 71.1255V113.258H104.572H84.8882V71.1255C84.8882 59.6408 78.8746 49.5688 69.8716 43.8636H109.247ZM69.4877 124.279C57.3007 135.02 45.0719 140.024 31.0026 140.024H20.9145C16.8891 140.024 14.4507 137.384 13.5132 134.913C12.561 132.408 12.6274 128.755 15.6662 126.009L24.3149 118.214H76.0844L69.4877 124.279ZM48.4724 191.078C48.4724 179.737 57.6329 170.508 68.8947 170.508C72.8709 170.508 76.6577 171.7 79.9671 173.861V195.043H48.9571C48.6791 193.72 48.4724 192.374 48.4724 191.078ZM84.8882 195.043V118.214H102.112V195.043H84.8882Z" fill="#171717"/>
</svg>
