<svg width="190" height="217" viewBox="0 0 190 217" fill="none" xmlns="http://www.w3.org/2000/svg">
<path fill-rule="evenodd" clip-rule="evenodd" d="M107.458 153.897H117.07H147.256C147.944 153.897 148.602 153.61 149.07 153.106C149.537 152.601 149.775 151.92 149.723 151.235L145.514 96.0176C144.388 83.9384 134.613 74.4744 123.256 74.4744H117.07C117.046 74.4744 117.024 74.4812 117.002 74.488C116.982 74.4942 116.962 74.5005 116.939 74.5016L115.336 27.13C114.792 11.9159 102.512 0 87.3797 0C72.2448 0 59.9652 11.9159 59.4233 27.1324L57.8175 74.5487C57.7645 74.5415 57.7141 74.5277 57.6637 74.5139L57.6637 74.5138C57.5917 74.4941 57.52 74.4744 57.4414 74.4744H51.2559C39.8991 74.4744 30.121 83.9384 28.9952 96.0596L24.789 151.235C24.737 151.92 24.9721 152.601 25.4422 153.106C25.9098 153.61 26.568 153.897 27.2558 153.897H57.6889H67.3013C67.1676 154.202 67.091 154.533 67.091 154.887C67.091 158.363 67.7367 161.718 68.8947 164.843C59.9627 165.165 51.9635 169.134 46.3247 175.319C44.328 175.109 42.2868 174.928 40.3692 174.928C18.5415 174.928 0.781494 192.688 0.781494 214.516C0.781494 215.884 1.88995 216.99 3.25573 216.99C4.6215 216.99 5.72996 215.884 5.72996 214.516C5.72996 195.415 21.2681 179.877 40.3692 179.877C41.072 179.877 41.827 179.925 42.5824 179.973L42.7816 179.986C39.7037 184.917 37.895 190.719 37.895 196.949C37.895 198.317 39.0035 199.423 40.3692 199.423C41.735 199.423 42.8435 198.317 42.8435 196.949C42.8435 181.943 55.0538 169.732 70.06 169.732C70.4361 169.732 70.7825 169.636 71.1017 169.485C74.5211 175.24 79.9297 179.753 86.5978 181.975C86.6003 181.975 86.6052 181.975 86.6077 181.977C86.8551 182.059 87.1149 182.104 87.3797 182.104C87.6444 182.104 87.9042 182.059 88.1516 181.977C88.1566 181.975 88.159 181.977 88.164 181.975C99.8325 178.09 107.671 167.201 107.671 154.887C107.668 154.533 107.592 154.202 107.458 153.897ZM64.3767 27.2166H110.385C110.385 27.2294 110.386 27.2422 110.388 27.2553L110.389 27.2696C110.39 27.2797 110.392 27.2901 110.393 27.3007L114 133.856H93.6172L94.5549 111.835C94.8024 107.877 91.3384 104.413 86.8848 104.165C82.926 104.165 79.4621 107.629 79.7095 111.835L80.6473 133.856H60.7619L64.3693 27.3056C64.3693 27.2858 64.3715 27.266 64.3737 27.2462C64.3748 27.2363 64.3759 27.2265 64.3767 27.2166ZM123.256 79.4229C132.082 79.4229 139.697 86.9124 140.583 96.4357L144.586 148.949H119.461L117.105 79.4229H123.256ZM33.9263 96.4778C34.8146 86.9149 42.4278 79.4229 51.2559 79.4229H57.4414C57.481 79.4229 57.5178 79.4123 57.5547 79.4017C57.5871 79.3925 57.6196 79.3831 57.6542 79.3808L55.2963 148.949H29.9255L33.9263 96.4778ZM87.3797 176.987C78.173 173.555 72.0394 164.786 72.0394 154.887C72.0394 154.533 71.9602 154.202 71.8291 153.9H81.5009L81.6889 158.351C81.9363 161.32 84.1632 163.547 87.1322 163.547C90.1013 163.547 92.5755 161.32 92.5755 158.351L92.7661 153.897H102.933C102.799 154.202 102.72 154.533 102.72 154.887C102.72 164.786 96.5838 173.555 87.3797 176.987ZM87.3794 71.0106C95.7003 71.0106 102.472 64.2411 102.472 55.9177C102.472 47.5944 95.7027 40.8249 87.3794 40.8249C79.0561 40.8249 72.2866 47.5944 72.2866 55.9177C72.2866 64.2411 79.0561 71.0106 87.3794 71.0106ZM87.3794 45.7734C92.9737 45.7734 97.5238 50.3235 97.5238 55.9177C97.5238 61.512 92.9737 66.0621 87.3794 66.0621C81.7852 66.0621 77.2351 61.512 77.2351 55.9177C77.2351 50.3235 81.7852 45.7734 87.3794 45.7734ZM156.948 182.695C158.764 182.314 160.649 182.104 162.597 182.104C177.442 182.104 189.071 193.732 189.068 208.578C189.068 209.946 187.962 211.052 186.594 211.052C185.226 211.052 184.12 209.946 184.12 208.578C184.12 196.506 174.666 187.052 162.597 187.052C150.525 187.052 141.071 196.506 141.071 208.578C141.071 209.946 139.965 211.052 138.597 211.052C137.228 211.052 136.122 209.946 136.122 208.578C136.122 197.451 142.654 188.133 152.175 184.162C148.169 175.445 139.514 169.732 129.937 169.732C116.43 169.732 105.442 180.72 105.442 194.227C105.442 195.596 104.336 196.702 102.968 196.702C101.599 196.702 100.493 195.596 100.493 194.227C100.493 177.994 113.701 164.784 129.937 164.784C141.677 164.784 152.269 171.895 156.948 182.695ZM17.0766 54.928C17.5615 55.4228 18.2023 55.6703 18.8432 55.6703C19.4667 55.6703 20.0927 55.4352 20.5751 54.9626L25.1525 50.4744L29.7298 54.9626C30.2123 55.4352 30.8383 55.6703 31.4618 55.6703C32.1026 55.6703 32.7434 55.4228 33.2284 54.928C34.1859 53.9507 34.1686 52.3845 33.1937 51.4294L28.6857 47.0104L33.1937 42.5915C34.1686 41.6364 34.1834 40.0677 33.2284 39.0929C32.2733 38.118 30.7046 38.1007 29.7298 39.0583L25.1525 43.5465L20.5751 39.0583C19.5978 38.1032 18.0341 38.118 17.0766 39.0929C16.119 40.0702 16.1364 41.6364 17.1112 42.5915L21.6193 47.0104L17.1112 51.4294C16.1364 52.3845 16.119 53.9531 17.0766 54.928ZM165.088 65.5844C163.185 67.4896 160.674 68.5362 158.019 68.5362C155.364 68.5362 152.853 67.4871 150.95 65.5844C149.047 63.6818 147.998 61.1704 147.998 58.5156C147.998 55.8607 149.045 53.3494 150.95 51.4467C151.917 50.4793 153.481 50.4793 154.448 51.4467C155.416 52.4141 155.416 53.9778 154.448 54.9452C153.481 55.9151 152.947 57.1819 152.947 58.5156C152.947 59.8492 153.479 61.116 154.448 62.0859C156.386 64.0232 159.652 64.0232 161.589 62.0859C162.556 61.1185 164.12 61.1185 165.088 62.0859C166.055 63.0533 166.055 64.617 165.088 65.5844Z" fill="#171717"/>
</svg>
