<svg width="191" height="188" viewBox="0 0 191 188" fill="none" xmlns="http://www.w3.org/2000/svg">
<path fill-rule="evenodd" clip-rule="evenodd" d="M152.631 22.5942L143.971 27.0478L145.456 17.3983L138.528 10.7178L148.177 9.23329L152.631 0.32605L156.837 9.23329L166.487 10.7178L159.559 17.3983L161.291 27.0478L152.631 22.5942ZM81.6206 160.409L86.0742 169.069L95.7237 170.553L88.7959 177.481L90.2804 187.131L81.6206 182.43L72.9608 187.131L74.6927 177.481L67.7649 170.553L77.4144 169.069L81.6206 160.409ZM20.5072 64.4085L31.7848 37.1177L49.4557 63.1714L53.0755 32.1792L79.394 49.0683L71.1152 21.4014C74.6632 18.655 77.4566 16.0101 79.4558 13.907C80.396 12.9148 80.3564 11.3486 79.3668 10.4084C78.3771 9.47066 76.8109 9.51024 75.8682 10.4975C70.2443 16.4208 58.0141 26.9338 39.2941 30.8134C27.7419 33.2654 15.5835 32.7705 4.14015 29.3759C2.83128 28.9924 1.45313 29.7346 1.06468 31.046C0.676222 32.3573 1.42592 33.733 2.73479 34.1214C5.37479 34.9033 8.05686 35.4922 10.7538 35.9845L20.5072 64.4085ZM187.986 155.762C189.332 155.465 190.64 156.329 190.925 157.662C191.214 158.999 190.363 160.315 189.027 160.599L188.169 160.785L188.159 160.787C185.7 161.318 183.209 161.857 180.357 162.099L165.992 185.893L159.425 161.678L138.281 178.718L143.496 149.5C141.312 147.629 139.196 145.561 137.157 143.23C136.259 142.203 136.363 140.64 137.392 139.739C138.417 138.838 139.978 138.94 140.884 139.974C142.715 142.065 144.605 143.923 146.555 145.606L152.916 150.255C155.736 151.959 158.691 153.328 161.808 154.344C174.693 158.641 180.723 157.334 187.113 155.949L187.117 155.948L187.986 155.762ZM164.26 123.543C164.26 129.409 169.033 134.182 174.899 134.182C180.766 134.182 185.538 129.409 185.538 123.543C185.538 117.676 180.766 112.904 174.899 112.904C169.033 112.904 164.26 117.676 164.26 123.543ZM174.899 117.852C178.039 117.852 180.59 120.403 180.59 123.543C180.59 126.683 178.039 129.234 174.899 129.234C171.759 129.234 169.208 126.68 169.208 123.543C169.208 120.406 171.759 117.852 174.899 117.852ZM10.4344 99.3201C11.1049 98.1276 12.6068 97.702 13.8043 98.3775C16.7115 100.015 20.1804 99.2063 21.8753 96.497C23.4538 93.6863 22.6472 90.2174 19.9404 88.5251C18.7825 87.8001 18.4311 86.2735 19.1536 85.1156C19.8786 83.9576 21.4027 83.6063 22.5631 84.3288C27.5536 87.4488 29.0852 93.7655 26.1285 99.0232C24.0353 102.376 20.5812 104.184 16.9664 104.184C15.0909 104.184 13.1734 103.7 11.3771 102.688C10.187 102.02 9.76389 100.513 10.4344 99.3201ZM126.478 113.371L141.86 105.469C143.924 104.436 145.968 103.159 148.049 101.86L148.071 101.846L170.626 86.7238C174.246 84.1902 175.211 79.0215 172.719 75.1147C171.982 74.0582 171.002 73.259 169.911 72.6726C172.212 69.9188 172.583 65.772 170.492 62.4936C169.552 61.1526 168.248 60.1802 166.783 59.6111C168.04 57.0107 167.981 53.7769 166.284 51.1122C165.368 49.8058 164.104 48.8581 162.684 48.2816C162.934 47.7051 163.131 47.1113 163.23 46.5076C163.624 44.1596 163.065 41.7645 161.83 40.2255C159.294 36.6107 154.128 35.6408 150.26 38.1051L130.276 51.5006L124.229 36.4795C121.822 30.7715 115.794 27.4634 109.839 28.5323H109.579C109.431 28.5323 109.282 28.5447 109.136 28.5719C107.167 28.9307 105.432 30.1925 104.373 32.0333C103.262 33.9731 103.047 36.2519 103.797 38.308L109.718 54.0911C111.269 58.5225 110.977 62.9736 108.871 66.972L102.874 78.4054L99.5882 73.5386C98.8212 72.4054 97.2822 72.106 96.1515 72.873L67.6458 92.1152C67.1015 92.4813 66.7254 93.0504 66.6017 93.6937C66.478 94.337 66.6141 95.0051 66.9802 95.5494L69.1798 98.8055L4.3673 138.507C3.7908 138.861 3.38503 139.432 3.24152 140.093C3.09802 140.756 3.2341 141.444 3.61018 142.003L30.5793 181.838C30.9579 182.4 31.5492 182.779 32.2148 182.892C32.3534 182.915 32.4894 182.927 32.628 182.927C33.1575 182.927 33.6771 182.759 34.1076 182.437L95.0059 137.06L96.8838 139.843C97.3614 140.551 98.1407 140.932 98.9374 140.932C99.4125 140.932 99.895 140.793 100.321 140.509L128.826 121.269C129.371 120.903 129.747 120.334 129.87 119.688C129.996 119.042 129.86 118.377 129.494 117.832L126.478 113.371ZM113.253 69.273C115.973 64.1093 116.376 58.1365 114.372 52.4062L108.441 36.5934C108.203 35.9426 108.29 35.1583 108.671 34.4977C108.966 33.983 109.391 33.6218 109.859 33.4808H110.074C110.235 33.4808 110.401 33.4659 110.559 33.4313C114.3 32.6841 118.14 34.7698 119.657 38.3624L126.829 56.1769C127.107 56.8697 127.686 57.3992 128.398 57.6169C129.108 57.8371 129.888 57.7233 130.504 57.3076L152.972 42.247C154.538 41.2573 156.78 41.6383 157.874 43.1897C158.326 43.7563 158.515 44.7361 158.354 45.6936C158.225 46.4606 157.666 47.3167 156.911 47.7744L156.263 48.2223C155.721 48.4301 155.192 48.6874 154.687 49.0115L145.037 55.692C143.914 56.4689 143.634 58.0128 144.411 59.1361C145.186 60.2569 146.73 60.539 147.856 59.7621L149.08 58.9134C149.429 58.8565 149.771 58.7402 150.082 58.525L158.413 52.7501C159.826 52.3691 161.414 52.7823 162.171 53.861C163.166 55.4223 162.785 57.6713 161.367 58.6635L151.718 65.344C151.706 65.3518 151.698 65.3623 151.689 65.373C151.682 65.3828 151.674 65.3926 151.663 65.4009L149.244 67.0759C148.12 67.8528 147.841 69.3967 148.618 70.5201C149.394 71.6409 150.933 71.9205 152.062 71.146L161.632 64.52C163.196 63.5254 165.442 63.9089 166.38 65.245C167.375 66.8062 166.991 69.0528 165.574 70.045L161.741 72.6999C161.662 72.7416 161.582 72.779 161.502 72.8164L161.502 72.8165C161.373 72.8765 161.244 72.9363 161.122 73.0141L151.475 79.6945C150.352 80.4714 150.072 82.0153 150.849 83.1386C151.626 84.2595 153.165 84.5415 154.293 83.7646L158.188 81.0677C158.381 80.996 158.571 80.9193 158.747 80.7955L164.242 76.9902C165.774 76.2603 167.741 76.6265 168.609 77.8636C169.604 79.4248 169.223 81.6714 167.837 82.6438L145.354 97.7168L145.349 97.7202L145.348 97.7204C143.376 98.9512 141.515 100.113 139.631 101.057L123.697 109.244L106.026 83.0669L113.253 69.273ZM33.2292 176.92L9.16236 141.372L71.9535 102.913L92.2323 132.955L33.2292 176.92ZM99.6005 135.021L98.069 132.752C97.9972 132.51 97.9181 132.267 97.7696 132.049L74.7592 98.1548C74.7374 98.122 74.7088 98.0983 74.68 98.0744C74.6567 98.0551 74.6332 98.0357 74.6133 98.0113L72.4656 94.8319L96.869 78.3584L124.001 118.552L99.6005 135.021ZM106.363 120.574H102.651C101.167 120.574 99.9297 119.337 99.9297 117.852V114.141C99.9297 112.656 101.167 111.419 102.651 111.419H106.363C107.847 111.419 109.084 112.656 109.084 114.141V117.852C109.084 119.337 107.847 120.574 106.363 120.574Z" fill="#171717"/>
</svg>
